
<svg width="150px" height="46px" viewBox="0 0 150 46" version="1.1" xmlns="http://www.w3.org/2000/svg" xmlns:xlink="http://www.w3.org/1999/xlink">
    <!-- Generator: Sketch 51.3 (57544) - http://www.bohemiancoding.com/sketch -->
    <desc>Created with Sketch.</desc>
    <defs></defs>
    <g id="-" stroke="none" stroke-width="1" fill="none" fill-rule="evenodd">
        <g id="Navigation-Bar/Black" transform="translate(-31.000000, -31.000000)" fill="#000000">
            <g id="Logo/Black" transform="translate(31.000000, 31.000000)">
                <g id="Page-1">
                    <path d="M0,42.4587 L6.683,42.4587 L11.033,32.8987 L27.613,32.8987 L31.961,42.4587 L38.647,42.4587 L19.323,0.2707 L0,42.4587 Z M19.323,14.1867 L25.005,27.1187 L13.642,27.1187 L19.323,14.1867 Z" id="Fill-1"></path>
                    <polygon id="Fill-2" points="40.8375 0.0003 40.8375 42.4583 47.0225 42.4583 47.0225 15.1043 75.6495 45.0963 75.6495 2.8923 69.4645 2.8923 69.4645 29.9923"></polygon>
                    <polygon id="Fill-3" points="110.4741 2.8915 102.2241 2.8915 87.0561 18.3915 87.0561 2.8915 80.8711 2.8915 80.8711 42.4575 87.0561 42.4575 87.0561 26.1185 88.1921 25.0415 102.2841 42.4575 110.5741 42.4575 92.5681 20.7975"></polygon>
                    <path d="M111.3543,42.4587 L118.0383,42.4587 L122.3873,32.8987 L138.9683,32.8987 L143.3163,42.4587 L150.0003,42.4587 L130.6783,0.2707 L111.3543,42.4587 Z M130.6783,14.1867 L136.3593,27.1187 L124.9963,27.1187 L130.6783,14.1867 Z" id="Fill-4"></path>
                </g>
            </g>
        </g>
    </g>
</svg>